<svg aria-hidden="true" focusable="false" data-prefix="far" data-icon="angles-left" class="svg-inline--fa fa-angles-left absolute left-1/2 top-1/2 h-[1em] -translate-x-1/2 -translate-y-1/2 align-[-0.125em]" role="img" xmlns="http://www.w3.org/2000/svg" viewBox="0 0 512 512"><path fill="currentColor" d="M47 239c-9.4 9.4-9.4 24.6 0 33.9L207 433c9.4 9.4 24.6 9.4 33.9 0s9.4-24.6 0-33.9L97.9 256 241 113c9.4-9.4 9.4-24.6 0-33.9s-24.6-9.4-33.9 0L47 239zM399 79L239 239c-9.4 9.4-9.4 24.6 0 33.9L399 433c9.4 9.4 24.6 9.4 33.9 0s9.4-24.6 0-33.9l-143-143L433 113c9.4-9.4 9.4-24.6 0-33.9s-24.6-9.4-33.9 0z"></path></svg>